<?xml version="1.0" encoding="UTF-8" standalone="no"?>
<!-- Generator: Adobe Illustrator 19.0.0, SVG Export Plug-In . SVG Version: 6.00 Build 0)  -->

<svg
   xmlns:dc="http://purl.org/dc/elements/1.1/"
   xmlns:cc="http://creativecommons.org/ns#"
   xmlns:rdf="http://www.w3.org/1999/02/22-rdf-syntax-ns#"
   xmlns:svg="http://www.w3.org/2000/svg"
   xmlns="http://www.w3.org/2000/svg"
   xmlns:sodipodi="http://sodipodi.sourceforge.net/DTD/sodipodi-0.dtd"
   xmlns:inkscape="http://www.inkscape.org/namespaces/inkscape"
   version="1.1"
   id="Capa_1"
   x="0px"
   y="0px"
   viewBox="0 0 473.03603 512.001"
   xml:space="preserve"
   inkscape:version="0.91 r13725"
   sodipodi:docname="history.svg"
   width="473.03601"
   height="512.00098"><metadata
     id="metadata115"><rdf:RDF><cc:Work
         rdf:about=""><dc:format>image/svg+xml</dc:format><dc:type
           rdf:resource="http://purl.org/dc/dcmitype/StillImage" /><dc:title></dc:title></cc:Work></rdf:RDF></metadata><defs
     id="defs113" /><sodipodi:namedview
     pagecolor="#ffffff"
     bordercolor="#666666"
     borderopacity="1"
     objecttolerance="10"
     gridtolerance="10"
     guidetolerance="10"
     inkscape:pageopacity="0"
     inkscape:pageshadow="2"
     inkscape:window-width="749"
     inkscape:window-height="480"
     id="namedview111"
     showgrid="false"
     fit-margin-top="0"
     fit-margin-left="0"
     fit-margin-right="0"
     fit-margin-bottom="0"
     inkscape:zoom="0.46093662"
     inkscape:cx="236.51849"
     inkscape:cy="256.00051"
     inkscape:window-x="0"
     inkscape:window-y="197"
     inkscape:window-maximized="0"
     inkscape:current-layer="Capa_1" /><g
     id="g3"
     style="fill:#ffffff"
     transform="translate(-19.482,0)"><g
       id="g5"
       style="fill:#ffffff"><path
         d="M 423.243,108.24 C 382.524,67.521 329.572,43.487 272.675,39.55 L 301.435,10.789 290.646,0 l -48.12,48.12 48.12,48.12 10.789,-10.789 -30.726,-30.726 c 115.169,7.597 206.549,103.699 206.549,220.758 0,122.002 -99.256,221.258 -221.258,221.258 -122.002,0 -221.258,-99.255 -221.258,-221.258 0,-4.907 0.163,-9.869 0.483,-14.745 l -15.227,-1.001 c -0.342,5.209 -0.516,10.507 -0.516,15.746 0,63.176 24.602,122.571 69.275,167.243 44.673,44.672 104.067,69.275 167.243,69.275 63.176,0 122.571,-24.602 167.243,-69.275 44.672,-44.673 69.275,-104.067 69.275,-167.243 0,-63.176 -24.602,-122.572 -69.275,-167.243 z"
         id="path7"
         style="fill:#ffffff"
         inkscape:connector-curvature="0" /></g></g><g
     id="g9"
     style="fill:#ffffff"
     transform="translate(-19.482,0)"><g
       id="g11"
       style="fill:#ffffff"><path
         d="m 60.777,141.921 c -2.963,4.323 -5.815,8.795 -8.475,13.293 l 13.133,7.77 c 2.488,-4.207 5.157,-8.391 7.929,-12.437 l -12.587,-8.626 z"
         id="path13"
         style="fill:#ffffff"
         inkscape:connector-curvature="0" /></g></g><g
     id="g15"
     style="fill:#ffffff"
     transform="translate(-19.482,0)"><g
       id="g17"
       style="fill:#ffffff"><path
         d="m 80.277,117.169 c -3.504,3.887 -6.923,7.942 -10.16,12.051 l 11.986,9.443 c 3.031,-3.845 6.229,-7.639 9.509,-11.277 L 80.277,117.169 Z"
         id="path19"
         style="fill:#ffffff"
         inkscape:connector-curvature="0" /></g></g><g
     id="g21"
     style="fill:#ffffff"
     transform="translate(-19.482,0)"><g
       id="g23"
       style="fill:#ffffff"><path
         d="m 24.152,228.49 c -1.035,5.129 -1.908,10.363 -2.598,15.556 l 15.126,2.009 c 0.646,-4.858 1.463,-9.753 2.43,-14.549 L 24.152,228.49 Z"
         id="path25"
         style="fill:#ffffff"
         inkscape:connector-curvature="0" /></g></g><g
     id="g27"
     style="fill:#ffffff"
     transform="translate(-19.482,0)"><g
       id="g29"
       style="fill:#ffffff"><path
         d="m 102.875,95.218 c -3.985,3.388 -7.908,6.954 -11.663,10.601 l 10.633,10.945 c 3.514,-3.413 7.185,-6.75 10.913,-9.919 l -9.883,-11.627 z"
         id="path31"
         style="fill:#ffffff"
         inkscape:connector-curvature="0" /></g></g><g
     id="g33"
     style="fill:#ffffff"
     transform="translate(-19.482,0)"><g
       id="g35"
       style="fill:#ffffff"><path
         d="m 44.731,169.042 c -2.362,4.68 -4.593,9.493 -6.632,14.308 l 14.052,5.949 c 1.907,-4.502 3.994,-9.005 6.202,-13.381 l -13.622,-6.876 z"
         id="path37"
         style="fill:#ffffff"
         inkscape:connector-curvature="0" /></g></g><g
     id="g39"
     style="fill:#ffffff"
     transform="translate(-19.482,0)"><g
       id="g41"
       style="fill:#ffffff"><path
         d="m 32.443,198.073 c -1.713,4.944 -3.28,10.015 -4.657,15.069 l 14.722,4.012 c 1.289,-4.725 2.754,-9.465 4.354,-14.088 l -14.419,-4.993 z"
         id="path43"
         style="fill:#ffffff"
         inkscape:connector-curvature="0" /></g></g><g
     id="g45"
     style="fill:#ffffff"
     transform="translate(-19.482,0)"><g
       id="g47"
       style="fill:#ffffff"><path
         d="m 257.065,107.631 c -92.26,0 -167.319,75.059 -167.319,167.319 0,92.26 75.059,167.32 167.319,167.32 92.26,0 167.319,-75.059 167.319,-167.319 0,-92.26 -75.059,-167.32 -167.319,-167.32 z m 0,319.379 c -83.845,0 -152.06,-68.214 -152.06,-152.06 0,-83.846 68.215,-152.06 152.06,-152.06 83.846,0 152.06,68.214 152.06,152.06 0,83.846 -68.214,152.06 -152.06,152.06 z"
         id="path49"
         style="fill:#ffffff"
         inkscape:connector-curvature="0" /></g></g><g
     id="g51"
     style="fill:#ffffff"
     transform="translate(-19.482,0)"><g
       id="g53"
       style="fill:#ffffff"><rect
         x="248.369"
         y="140.69"
         width="15.259"
         height="15.259"
         id="rect55"
         style="fill:#ffffff" /></g></g><g
     id="g57"
     style="fill:#ffffff"
     transform="translate(-19.482,0)"><g
       id="g59"
       style="fill:#ffffff"><rect
         x="248.369"
         y="392.97501"
         width="15.259"
         height="15.259"
         id="rect61"
         style="fill:#ffffff" /></g></g><g
     id="g63"
     style="fill:#ffffff"
     transform="translate(-19.482,0)"><g
       id="g65"
       style="fill:#ffffff"><rect
         x="122.226"
         y="266.83301"
         width="15.259"
         height="15.259"
         id="rect67"
         style="fill:#ffffff" /></g></g><g
     id="g69"
     style="fill:#ffffff"
     transform="translate(-19.482,0)"><g
       id="g71"
       style="fill:#ffffff"><rect
         x="374.51199"
         y="266.83301"
         width="15.259"
         height="15.259"
         id="rect73"
         style="fill:#ffffff" /></g></g><g
     id="g75"
     style="fill:#ffffff"
     transform="translate(-19.482,0)"><g
       id="g77"
       style="fill:#ffffff"><polygon
         points="248.371,275.083 295.874,322.586 306.664,311.796 263.63,268.762 263.63,184.436 248.371,184.436 "
         id="polygon79"
         style="fill:#ffffff" /></g></g><g
     id="g81"
     style="fill:#ffffff"
     transform="translate(-19.482,0)" /><g
     id="g83"
     style="fill:#ffffff"
     transform="translate(-19.482,0)" /><g
     id="g85"
     style="fill:#ffffff"
     transform="translate(-19.482,0)" /><g
     id="g87"
     style="fill:#ffffff"
     transform="translate(-19.482,0)" /><g
     id="g89"
     style="fill:#ffffff"
     transform="translate(-19.482,0)" /><g
     id="g91"
     style="fill:#ffffff"
     transform="translate(-19.482,0)" /><g
     id="g93"
     style="fill:#ffffff"
     transform="translate(-19.482,0)" /><g
     id="g95"
     style="fill:#ffffff"
     transform="translate(-19.482,0)" /><g
     id="g97"
     style="fill:#ffffff"
     transform="translate(-19.482,0)" /><g
     id="g99"
     style="fill:#ffffff"
     transform="translate(-19.482,0)" /><g
     id="g101"
     style="fill:#ffffff"
     transform="translate(-19.482,0)" /><g
     id="g103"
     style="fill:#ffffff"
     transform="translate(-19.482,0)" /><g
     id="g105"
     style="fill:#ffffff"
     transform="translate(-19.482,0)" /><g
     id="g107"
     style="fill:#ffffff"
     transform="translate(-19.482,0)" /><g
     id="g109"
     style="fill:#ffffff"
     transform="translate(-19.482,0)" /></svg>