<svg version="1.1" id="Layer_1" xmlns="http://www.w3.org/2000/svg" xmlns:xlink="http://www.w3.org/1999/xlink" x="0px" y="0px" viewBox="0 0 180 60" style="enable-background:new 0 0 180 60;" xml:space="preserve"><style type="text/css">.st0{fill:#212120;}.st1{fill:#A01F21;}</style><g><g><g><g><g><path id="leaf3" class="st0" d="M83.4,4.1c3.8,4.4,5,10.3,4.2,14c2.8-2,5.7-3.9,10-3.9c7.9,0,13.1,5.9,14.4,10.7c1.2-5.7,2.1-17.9-3.4-22.2c-2.7-1.2-5.5-2.2-10.8-2.3C92.6,0.4,87.7,1.7,83.4,4.1z"></path></g><g><path id="leaf2" class="st0" d="M125.9,28.1c0.1-7.8-4.3-15.8-9.7-20.5c0.7,4,0.4,9.6,0.1,12.4c-0.8,7.2-2.3,11.8-6.1,16.9s-8.4,7.6-14.6,6.8c1.8,2.5,13.3,8.2,18.2,8.7C120.5,47.7,125.7,39.3,125.9,28.1z"></path></g></g></g><g><g><g><path id="leaf1" class="st1" d="M90.2,43.7c-1.8-1.9-7.1-7.8-8.7-13.2c-4.5,4.6-10.6,7.4-13.8,8.6c2.8,5,8.7,11,11.4,12.9c6.6,4.8,12.5,5.3,15.5,5.5c3.4,0.3,10.2-0.2,14.6-2.6C98.7,53,92,45.5,90.2,43.7z"></path></g></g><g><g><path class="st1" d="M49.2,18c1.9-1.5,5.7-4,10.8-3.8c2.7,0.1,5.1,1,7.1,2.3c5.7-1.4,10.5-8.4,9.8-12.3C64.1-2.3,51,0,44,2.6C47,4.8,50.1,11.3,49.2,18z"></path></g><g><path class="st1" d="M66.4,36c4.8-2.4,8.8-4.1,12.6-7.8c4.1-4,5.3-8,5.3-11.9c0-3.9-1.2-7.6-3.8-10.2c-0.3,6.2-4.4,11.1-9,13.2c-2.5,1.2-19,7-23.6,10.4c-5.7,4.2-9.6,9.8-9.6,24.2h16.4C54.7,41.7,60.8,38.8,66.4,36z"></path></g></g></g><g><path class="st1" d="M143.9,13.2c-3.9,0-7.7,0-11.5,0c-0.1,4.6,5.3,5.5,9,2.9c0.6,1,1.1,2.1,1.7,3.1c-2.5,2.4-7.6,2.8-11,1.1c-3.2-1.6-5-5.7-4.3-9.5c0.5-2.7,1.6-4.8,3.5-6c2.9-1.9,7-1.8,9.7,0.2C143.6,6.9,144,9.9,143.9,13.2z M139.1,10.3c0-2.1-1.5-3.3-3.4-3.3c-1.8,0.1-3.3,1.6-3.4,3.3C134.5,10.3,136.9,10.3,139.1,10.3z"></path><polygon class="st1" points="144.9,3.8 150,3.8 154.1,15.1 158.2,3.8 163,3.8 153.2,27.1 148.2,27.1 151.8,19.4 "></polygon><path class="st1" d="M180,13.2c-3.9,0-7.7,0-11.5,0c-0.1,4.6,5.3,5.5,9,2.9c0.6,1,1.1,2.1,1.7,3.1c-2.5,2.4-7.6,2.8-11,1.1c-3.2-1.6-5-5.7-4.3-9.5c0.5-2.7,1.6-4.8,3.5-6c2.9-1.9,7-1.8,9.7,0.2C179.7,6.9,180.1,9.9,180,13.2z M175.2,10.3c0-2.1-1.5-3.3-3.4-3.3c-1.8,0.1-3.3,1.6-3.4,3.3C170.6,10.3,173,10.3,175.2,10.3z"></path></g><g><g><g><path class="st0" d="M14.8,23l0.1-7.5c1.8-0.8,4.1-1.4,6.8-1.3c2.7,0.1,6.5,0.7,8,2.1c5.2-1.8,9.6-7.9,8.9-11.7C23.6-3.2,6.4,1.5,1.3,4.2l0.2,28C3.3,28.7,10.3,23.6,14.8,23z"></path></g><g><path class="st0" d="M28.1,36c4.8-2.4,8.8-4.1,12.6-7.8c4.1-4,5.3-8,5.3-11.9c0-3.9-1.2-8.3-3.8-10.9c-0.2,6.1-4.4,11.8-9,13.9c-2.5,1.2-19,7.7-23.6,11.1C3.8,34.5,0,39.5,0,53.8h16.4C16.4,41.7,22.6,38.8,28.1,36z"></path></g></g></g></g></g></svg>